<?xml version="1.0" encoding="UTF-8"?>
<!DOCTYPE svg PUBLIC "-//W3C//DTD SVG 1.1//EN" "http://www.w3.org/Graphics/SVG/1.1/DTD/svg11.dtd">
<!-- Creator: CorelDRAW 2021 (64-Bit) -->
<svg xmlns="http://www.w3.org/2000/svg" xml:space="preserve" width="6.0847in" height="1.44921in" version="1.1" style="shape-rendering:geometricPrecision; text-rendering:geometricPrecision; image-rendering:optimizeQuality; fill-rule:evenodd; clip-rule:evenodd"
viewBox="0 0 1994.08 474.94"
 xmlns:xlink="http://www.w3.org/1999/xlink"
 xmlns:xodm="http://www.corel.com/coreldraw/odm/2003">
 <defs>
  <style type="text/css">
   <![CDATA[
    .fil3 {fill:white}
    .fil0 {fill:white;fill-rule:nonzero}
    .fil1 {fill:white;fill-rule:nonzero}
    .fil2 {fill:url(#id0)}
   ]]>
  </style>
  <linearGradient id="id0" gradientUnits="userSpaceOnUse" x1="88.85" y1="549.52" x2="446.36" y2="-17.1">
   <stop offset="0" style="stop-opacity:1; stop-color:seagreen"/>
   <stop offset="1" style="stop-opacity:1; stop-color:#014E19"/>
  </linearGradient>
 </defs>
 <g id="Layer_x0020_1">
  <metadata id="CorelCorpID_0Corel-Layer"/>
  <path class="fil0" d="M237.47 0c65.57,0 124.94,26.58 167.91,69.55 42.97,42.97 69.55,102.34 69.55,167.91 0,65.57 -26.58,124.94 -69.55,167.91 -42.97,42.97 -102.34,69.55 -167.91,69.55 -65.57,0 -124.94,-26.58 -167.91,-69.55 -42.97,-42.97 -69.55,-102.34 -69.55,-167.91 0,-65.57 26.58,-124.94 69.55,-167.91 42.97,-42.97 102.34,-69.55 167.91,-69.55zm138.95 98.52c-35.56,-35.56 -84.69,-57.55 -138.95,-57.55 -54.26,0 -103.39,21.99 -138.95,57.55 -35.56,35.56 -57.55,84.69 -57.55,138.95 0,54.26 21.99,103.39 57.55,138.95 35.56,35.56 84.69,57.55 138.95,57.55 54.26,0 103.39,-21.99 138.95,-57.55 35.56,-35.56 57.55,-84.69 57.55,-138.95 0,-54.26 -21.99,-103.39 -57.55,-138.95z"/>
  <polygon class="fil1" points="510.19,319.62 510.19,100.55 599.69,100.55 670.73,221.35 670.73,164.39 670.73,100.55 737.08,100.55 737.08,319.62 664.47,319.62 576.54,169.09 576.54,233.87 576.54,319.62 "/>
  <path id="_1" class="fil1" d="M750.42 278.62c0,-17.94 8.76,-31.92 26.29,-41.94 17.53,-10.01 42.46,-15.96 74.8,-17.84l0 -5.32c0,-11.89 -6.36,-17.84 -19.09,-17.84 -13.35,0 -21.28,6.68 -23.78,20.03l-60.4 -8.45c1.88,-15.23 10.59,-27.43 26.13,-36.61 15.54,-9.18 35.62,-13.77 60.24,-13.77 25.24,0 44.54,5.37 57.9,16.12 13.35,10.75 20.03,26.44 20.03,47.1l0 45.38c0,3.76 0.52,6.31 1.57,7.67 1.04,1.36 3.23,2.03 6.57,2.03l10.95 0 0 44.44 -38.49 0c-20.03,0 -31.5,-7.51 -34.42,-22.53 -4.59,7.3 -11.74,13.77 -21.44,19.4 -9.7,5.63 -20.81,8.45 -33.33,8.45 -16.9,0 -30.04,-4.07 -39.43,-12.2 -9.39,-8.14 -14.08,-19.51 -14.08,-34.11zm101.08 -21.91l0 -9.08c-26.29,2.5 -39.43,10.43 -39.43,23.78 0,8.97 5.01,13.46 15.02,13.46 7.09,0 12.93,-2.5 17.53,-7.51 4.59,-5.01 6.88,-11.89 6.88,-20.65z"/>
  <path id="_2" class="fil1" d="M934.31 144.36l0 -50.07 66.35 0 0 50.07 -66.35 0zm0.63 175.25l0 -157.41 65.41 0 0 157.41 -65.41 0z"/>
  <path id="_3" class="fil1" d="M1017.13 144.36l0 -49.76 66.35 0 0 49.76 -66.35 0zm-27.54 236.28l0 -44.75 20.34 0c6.26,0 9.39,-3.96 9.39,-11.89l0 -161.8 62.9 0 0 165.55c0,16.27 -4.33,29.16 -12.99,38.65 -8.66,9.49 -21.12,14.24 -37.4,14.24l-42.25 0z"/>
  <path id="_4" class="fil1" d="M1092.74 278.62c0,-17.94 8.76,-31.92 26.29,-41.94 17.53,-10.01 42.46,-15.96 74.8,-17.84l0 -5.32c0,-11.89 -6.36,-17.84 -19.09,-17.84 -13.35,0 -21.28,6.68 -23.78,20.03l-60.4 -8.45c1.88,-15.23 10.59,-27.43 26.13,-36.61 15.54,-9.18 35.62,-13.77 60.24,-13.77 25.24,0 44.54,5.37 57.9,16.12 13.35,10.75 20.03,26.44 20.03,47.1l0 45.38c0,3.76 0.52,6.31 1.57,7.67 1.04,1.36 3.23,2.03 6.57,2.03l10.95 0 0 44.44 -38.49 0c-20.03,0 -31.5,-7.51 -34.42,-22.53 -4.59,7.3 -11.74,13.77 -21.44,19.4 -9.7,5.63 -20.81,8.45 -33.33,8.45 -16.9,0 -30.04,-4.07 -39.43,-12.2 -9.39,-8.14 -14.08,-19.51 -14.08,-34.11zm101.08 -21.91l0 -9.08c-26.29,2.5 -39.43,10.43 -39.43,23.78 0,8.97 5.01,13.46 15.02,13.46 7.09,0 12.93,-2.5 17.53,-7.51 4.59,-5.01 6.88,-11.89 6.88,-20.65z"/>
  <path id="_5" class="fil1" d="M1281.65 319.62l0 -219.07 118.92 0c25.45,0 45.48,5.53 60.09,16.59 14.6,11.06 21.91,26.08 21.91,45.07 0,16.27 -5.37,29.47 -16.12,39.59 -10.74,10.12 -24.57,16.53 -41.47,19.25 16.06,1.46 27.96,5.79 35.68,12.99 7.72,7.2 13.67,19.35 17.84,36.46l11.58 49.13 -73.54 0 -10.01 -52.26c-1.88,-10.01 -4.75,-16.85 -8.61,-20.5 -3.86,-3.65 -10.38,-5.48 -19.56,-5.48l-28.48 0 0 78.24 -68.22 0zm68.22 -124.24l36.3 0c7.72,0 13.88,-1.93 18.46,-5.79 4.59,-3.86 6.88,-9.13 6.88,-15.8 0,-6.68 -2.29,-11.89 -6.88,-15.65 -4.59,-3.76 -10.75,-5.63 -18.46,-5.63l-36.3 0 0 42.87z"/>
  <path id="_6" class="fil1" d="M1492.77 278.62c0,-17.94 8.76,-31.92 26.29,-41.94 17.53,-10.01 42.46,-15.96 74.8,-17.84l0 -5.32c0,-11.89 -6.36,-17.84 -19.09,-17.84 -13.35,0 -21.28,6.68 -23.78,20.03l-60.4 -8.45c1.88,-15.23 10.59,-27.43 26.13,-36.61 15.54,-9.18 35.62,-13.77 60.24,-13.77 25.24,0 44.54,5.37 57.9,16.12 13.35,10.75 20.03,26.44 20.03,47.1l0 45.38c0,3.76 0.52,6.31 1.57,7.67 1.04,1.36 3.23,2.03 6.57,2.03l10.95 0 0 44.44 -38.49 0c-20.03,0 -31.5,-7.51 -34.42,-22.53 -4.59,7.3 -11.74,13.77 -21.44,19.4 -9.7,5.63 -20.81,8.45 -33.33,8.45 -16.9,0 -30.04,-4.07 -39.43,-12.2 -9.39,-8.14 -14.08,-19.51 -14.08,-34.11zm101.08 -21.91l0 -9.08c-26.29,2.5 -39.43,10.43 -39.43,23.78 0,8.97 5.01,13.46 15.02,13.46 7.09,0 12.93,-2.5 17.53,-7.51 4.59,-5.01 6.88,-11.89 6.88,-20.65z"/>
  <path id="_7" class="fil1" d="M1676.67 144.36l0 -50.07 66.35 0 0 50.07 -66.35 0zm0.63 175.25l0 -157.41 65.41 0 0 157.41 -65.41 0z"/>
  <polygon id="_8" class="fil1" points="1759.17,319.62 1759.17,100.55 1822.7,100.55 1822.7,319.62 "/>
  <path id="_9" class="fil1" d="M1828.84 275.49l58.83 -7.82c1.25,12.94 9.49,19.4 24.72,19.4 12.52,0 18.78,-3.96 18.78,-11.89 0,-6.47 -5.74,-10.85 -17.21,-13.14l-19.09 -3.44c-21.28,-4.17 -36.41,-9.81 -45.38,-16.9 -8.97,-7.09 -13.46,-18.15 -13.46,-33.17 0,-15.23 6.62,-27.64 19.87,-37.24 13.25,-9.6 31.97,-14.4 56.17,-14.4 22.95,0 40.74,3.91 53.36,11.74 12.62,7.82 20.39,17.89 23.31,30.2l-57.27 11.27c-1.46,-5.22 -4.22,-9.39 -8.29,-12.52 -4.07,-3.13 -8.92,-4.69 -14.55,-4.69 -10.43,0 -15.65,3.76 -15.65,11.27 0,6.05 6.57,10.01 19.72,11.89l22.84 4.07c39.02,6.88 58.52,23.89 58.52,51.01 0,16.48 -7.15,29.57 -21.44,39.28 -14.29,9.7 -34.79,14.55 -61.5,14.55 -25.45,0 -44.91,-4.69 -58.37,-14.08 -13.46,-9.39 -21.44,-21.18 -23.94,-35.36z"/>
  <g id="_2675192627584">
   <circle class="fil2" cx="237.47" cy="237.47" r="185.69"/>
   <g>
    <path class="fil3" d="M301.83 268.11c5.5,-1.04 11.11,-2.17 16.62,-3.25 4.42,-0.87 11.89,-2.75 15.97,-2.99l-0.1 2.63 -220.14 52.2 0.23 8.77c2.84,2.01 10.95,4.98 14.57,6.52 15.87,6.74 100.1,43.66 102.47,43.4l102.81 -43.8c3.67,-1.66 10.95,-5.17 14.48,-5.97l-0.05 -78.33c-6.27,1.52 -14.3,4.61 -20.47,6.76 -7.01,2.44 -13.39,4.49 -20.09,6.76l-37.3 12.72c-0.99,0.37 -1.06,0.46 -2.13,0.77l33.15 -6.19zm-133.39 58.93c-0.03,-2.21 0.71,-4.25 2.21,-6.11 1.5,-1.86 3.42,-3.09 5.77,-3.68 1.83,-0.49 3.41,-0.48 4.72,0.03 1.31,0.5 2.19,1.43 2.63,2.77l-4.59 2.67c-0.41,-1.63 -1.37,-2.24 -2.85,-1.85 -0.94,0.25 -1.66,0.79 -2.18,1.63 -0.52,0.84 -0.78,1.91 -0.78,3.2 0,1.2 0.27,2.09 0.8,2.66 0.53,0.58 1.24,0.74 2.14,0.51 1.41,-0.37 2.39,-1.52 2.96,-3.43l4.53 0.37c-0.45,1.51 -1.35,2.87 -2.7,4.09 -1.34,1.21 -2.92,2.06 -4.72,2.54 -2.41,0.64 -4.34,0.47 -5.78,-0.5 -1.44,-0.97 -2.16,-2.6 -2.16,-4.89zm16.12 -2.32c0,-1.68 0.55,-3.18 1.66,-4.48 1.11,-1.31 2.57,-2.2 4.37,-2.68 1.85,-0.49 3.32,-0.38 4.43,0.33 1.11,0.71 1.66,1.91 1.66,3.61 0,1.7 -0.55,3.19 -1.66,4.48 -1.11,1.29 -2.59,2.19 -4.43,2.68 -1.81,0.48 -3.26,0.36 -4.37,-0.36 -1.11,-0.72 -1.66,-1.91 -1.66,-3.58zm7.65 -2.05c0,-1.79 -0.53,-2.55 -1.59,-2.26 -1.03,0.27 -1.55,1.31 -1.55,3.1 0,1.81 0.52,2.57 1.55,2.3 1.06,-0.28 1.59,-1.33 1.59,-3.13zm5.95 3.63l0 -10.4 4.11 -1.09 0 1.65c0.3,-0.65 0.77,-1.25 1.39,-1.8 0.63,-0.55 1.32,-0.93 2.08,-1.13 1.12,-0.3 1.97,-0.19 2.57,0.31 0.6,0.5 0.9,1.35 0.9,2.55l0 6.97 -4.3 1.14 0 -6.24c0,-0.91 -0.39,-1.26 -1.18,-1.05 -0.44,0.12 -0.77,0.38 -0.98,0.78 -0.21,0.4 -0.32,0.88 -0.32,1.43l0 5.75 -4.28 1.14zm12.94 -3.44l0 -10.4 4.11 -1.09 0 1.65c0.3,-0.65 0.77,-1.25 1.4,-1.8 0.63,-0.55 1.32,-0.93 2.08,-1.13 1.12,-0.3 1.97,-0.19 2.57,0.31 0.6,0.5 0.9,1.35 0.9,2.55l0 6.97 -4.3 1.14 0 -6.24c0,-0.91 -0.39,-1.26 -1.18,-1.05 -0.44,0.12 -0.77,0.38 -0.98,0.78 -0.21,0.4 -0.32,0.88 -0.32,1.43l0 5.75 -4.28 1.14zm12.44 -8.56c0,-1.63 0.53,-3.09 1.6,-4.39 1.07,-1.3 2.44,-2.18 4.12,-2.63 1.78,-0.47 3.16,-0.35 4.15,0.36 0.99,0.71 1.49,1.91 1.49,3.57 0,0.26 -0.02,0.57 -0.06,0.93l-7.15 1.9c0.01,1.32 0.54,1.84 1.59,1.56 0.79,-0.21 1.38,-0.84 1.8,-1.9l3.91 0.04c-0.95,2.33 -2.85,3.88 -5.7,4.64 -1.81,0.48 -3.21,0.36 -4.23,-0.35 -1.01,-0.72 -1.52,-1.96 -1.52,-3.72zm4.22 -2.34l3.02 -0.8c-0.01,-0.52 -0.15,-0.89 -0.42,-1.12 -0.27,-0.22 -0.62,-0.28 -1.06,-0.16 -0.94,0.25 -1.45,0.94 -1.53,2.08zm9.77 2.74c-1.05,-0.71 -1.58,-1.91 -1.58,-3.59 0,-1.68 0.54,-3.18 1.62,-4.49 1.08,-1.31 2.49,-2.2 4.23,-2.66 1.45,-0.38 2.67,-0.38 3.67,0.03 1,0.4 1.64,1.12 1.93,2.14l-4.01 2.04c-0.11,-0.55 -0.31,-0.94 -0.59,-1.18 -0.28,-0.23 -0.63,-0.3 -1.04,-0.19 -1.1,0.29 -1.65,1.34 -1.65,3.13 0,0.87 0.15,1.5 0.45,1.91 0.3,0.4 0.7,0.54 1.21,0.4 0.85,-0.23 1.41,-1 1.67,-2.31l4.09 -0.34c-0.33,1.37 -0.99,2.52 -1.96,3.46 -0.98,0.94 -2.23,1.61 -3.76,2.01 -1.79,0.48 -3.21,0.36 -4.27,-0.35zm12.41 -5.39l0 -4.38 -2.01 0.53 0 -2.79 2.01 -0.53 0 -3.16 4.18 -1.11 0 3.16 2.29 -0.61 0 2.79 -2.29 0.61 0 3.78c0,0.48 0.24,0.66 0.72,0.53l2.09 -0.55 0 3.1 -3.78 1.01c-1.03,0.27 -1.83,0.21 -2.38,-0.21 -0.55,-0.41 -0.83,-1.13 -0.83,-2.17zm8.25 -10.54l0 -3.31 4.38 -1.17 0 3.31 -4.38 1.17zm0.04 11.56l0 -10.4 4.32 -1.15 0 10.4 -4.32 1.15zm6.28 -1.67l0 -10.4 4.11 -1.09 0 1.65c0.3,-0.65 0.77,-1.25 1.39,-1.8 0.63,-0.55 1.32,-0.93 2.08,-1.13 1.12,-0.3 1.97,-0.19 2.57,0.31 0.6,0.5 0.9,1.35 0.9,2.55l0 6.97 -4.3 1.14 0 -6.24c0,-0.91 -0.39,-1.26 -1.18,-1.05 -0.44,0.12 -0.77,0.38 -0.98,0.78 -0.21,0.4 -0.32,0.88 -0.32,1.43l0 5.75 -4.28 1.14zm12.2 -1.32c0,-0.87 0.46,-1.69 1.38,-2.46 -0.8,-0.19 -1.2,-0.72 -1.2,-1.6 0,-1.01 0.61,-1.99 1.82,-2.94 -0.73,-0.43 -1.1,-1.13 -1.1,-2.11 0,-1.21 0.48,-2.28 1.43,-3.19 0.95,-0.91 2.18,-1.57 3.68,-1.97 1.09,-0.29 2.03,-0.35 2.82,-0.18 0.79,0.17 1.38,0.55 1.77,1.15 0.08,-0.77 0.26,-1.3 0.53,-1.62 0.27,-0.31 0.69,-0.55 1.27,-0.7l0.95 -0.25 0 3 -1.57 0.42c-0.26,0.07 -0.45,0.18 -0.56,0.32 -0.11,0.15 -0.2,0.39 -0.27,0.74l-0.08 0.31c-0.22,0.94 -0.73,1.79 -1.52,2.56 -0.79,0.77 -1.87,1.33 -3.23,1.7 -0.94,0.25 -1.76,0.31 -2.46,0.18 -0.29,0.28 -0.43,0.54 -0.43,0.78 0,0.39 0.3,0.5 0.91,0.34l4.86 -1.29c1.23,-0.33 2.19,-0.28 2.89,0.15 0.7,0.43 1.05,1.09 1.05,2 0,1.01 -0.36,1.91 -1.07,2.71 -0.72,0.8 -1.67,1.35 -2.85,1.67l-6.12 1.63c-1.93,0.51 -2.89,0.07 -2.89,-1.34zm7.32 -10.77c0,-1.07 -0.43,-1.5 -1.3,-1.27 -0.39,0.1 -0.69,0.32 -0.91,0.65 -0.22,0.33 -0.33,0.76 -0.33,1.29 0,1.05 0.41,1.46 1.24,1.24 0.87,-0.23 1.3,-0.87 1.3,-1.92zm-3.14 9.14l3.91 -1.04c0.58,-0.15 0.87,-0.47 0.87,-0.95 0,-0.21 -0.08,-0.35 -0.23,-0.43 -0.15,-0.08 -0.37,-0.09 -0.64,-0.02l-4.48 1.19c-0.23,0.3 -0.35,0.55 -0.35,0.78 0,0.48 0.31,0.64 0.93,0.47zm14.03 -7.84c0,-1.19 0.58,-2.26 1.74,-3.23 1.16,-0.97 2.8,-1.8 4.94,-2.49l0 -0.35c0,-0.78 -0.42,-1.07 -1.26,-0.84 -0.88,0.23 -1.41,0.82 -1.57,1.74l-3.99 0.5c0.12,-1.04 0.7,-2 1.73,-2.88 1.03,-0.88 2.35,-1.54 3.98,-1.97 1.67,-0.44 2.94,-0.43 3.82,0.05 0.88,0.47 1.32,1.39 1.32,2.76l0 3c0,0.25 0.03,0.41 0.1,0.48 0.07,0.07 0.21,0.08 0.43,0.02l0.72 -0.19 0 2.94 -2.54 0.68c-1.32,0.35 -2.08,0.06 -2.27,-0.88 -0.3,0.56 -0.78,1.11 -1.42,1.66 -0.64,0.54 -1.38,0.92 -2.2,1.14 -1.12,0.3 -1.98,0.26 -2.6,-0.11 -0.62,-0.37 -0.93,-1.04 -0.93,-2.01zm6.68 -3.22l0 -0.6c-1.74,0.63 -2.6,1.38 -2.6,2.26 0,0.59 0.33,0.8 0.99,0.63 0.47,-0.13 0.85,-0.39 1.16,-0.8 0.3,-0.41 0.45,-0.91 0.45,-1.49zm6.41 2.45l0 -14.47 4.19 -1.12 0 14.47 -4.19 1.11zm6.18 -1.64l0 -14.47 4.2 -1.12 0 14.47 -4.2 1.12zm-119.09 52.34l0 -10.4 4.15 -1.11 0 2.75c0.58,-2.18 1.74,-3.5 3.47,-3.96 0.36,-0.09 0.67,-0.15 0.95,-0.17l0 3.95c-0.52,0.04 -1.02,0.13 -1.49,0.25 -0.95,0.25 -1.65,0.68 -2.11,1.28 -0.45,0.6 -0.68,1.4 -0.68,2.39l0 3.87 -4.3 1.14zm9.16 -7.69c0,-1.63 0.53,-3.09 1.6,-4.39 1.07,-1.3 2.44,-2.18 4.12,-2.63 1.78,-0.47 3.16,-0.35 4.15,0.36 0.99,0.71 1.49,1.91 1.49,3.57 0,0.26 -0.02,0.57 -0.06,0.93l-7.15 1.9c0.01,1.32 0.54,1.84 1.59,1.56 0.79,-0.21 1.38,-0.84 1.8,-1.9l3.91 0.04c-0.95,2.33 -2.85,3.88 -5.7,4.64 -1.81,0.48 -3.21,0.36 -4.23,-0.35 -1.01,-0.72 -1.52,-1.96 -1.52,-3.72zm4.22 -2.34l3.02 -0.8c-0.01,-0.52 -0.15,-0.89 -0.42,-1.12 -0.27,-0.22 -0.62,-0.28 -1.06,-0.16 -0.94,0.25 -1.45,0.94 -1.53,2.08zm7.96 6.28c0,-0.87 0.46,-1.69 1.39,-2.46 -0.8,-0.19 -1.2,-0.72 -1.2,-1.6 0,-1.01 0.61,-1.99 1.82,-2.94 -0.73,-0.43 -1.1,-1.13 -1.1,-2.11 0,-1.21 0.48,-2.28 1.43,-3.19 0.95,-0.91 2.18,-1.57 3.68,-1.97 1.09,-0.29 2.03,-0.35 2.82,-0.18 0.79,0.17 1.38,0.55 1.77,1.15 0.08,-0.77 0.26,-1.3 0.53,-1.62 0.27,-0.31 0.69,-0.55 1.27,-0.7l0.95 -0.25 0 3 -1.57 0.42c-0.26,0.07 -0.45,0.18 -0.56,0.33 -0.11,0.15 -0.2,0.39 -0.27,0.74l-0.08 0.31c-0.22,0.94 -0.73,1.8 -1.52,2.56 -0.79,0.77 -1.87,1.33 -3.23,1.7 -0.94,0.25 -1.76,0.31 -2.46,0.18 -0.29,0.28 -0.43,0.54 -0.43,0.78 0,0.39 0.3,0.5 0.91,0.34l4.86 -1.29c1.23,-0.33 2.19,-0.28 2.89,0.15 0.7,0.43 1.05,1.09 1.05,2 0,1.01 -0.36,1.91 -1.08,2.7 -0.72,0.8 -1.67,1.35 -2.85,1.67l-6.12 1.63c-1.93,0.51 -2.89,0.07 -2.89,-1.34zm7.32 -10.77c0,-1.07 -0.43,-1.5 -1.3,-1.27 -0.39,0.1 -0.69,0.32 -0.91,0.66 -0.22,0.33 -0.33,0.76 -0.33,1.29 0,1.05 0.41,1.46 1.24,1.24 0.87,-0.23 1.3,-0.87 1.3,-1.92zm-3.14 9.15l3.91 -1.04c0.58,-0.15 0.87,-0.47 0.87,-0.95 0,-0.21 -0.08,-0.35 -0.23,-0.43 -0.15,-0.08 -0.37,-0.09 -0.64,-0.02l-4.48 1.19c-0.23,0.3 -0.35,0.55 -0.35,0.78 0,0.48 0.31,0.64 0.93,0.48zm10.33 -15.73l0 -3.31 4.38 -1.17 0 3.31 -4.38 1.17zm0.04 11.56l0 -10.4 4.32 -1.15 0 10.4 -4.32 1.15zm5.77 -6.72c0,-1.68 0.55,-3.18 1.66,-4.48 1.11,-1.31 2.57,-2.2 4.37,-2.68 1.85,-0.49 3.32,-0.38 4.43,0.33 1.11,0.71 1.66,1.91 1.66,3.61 0,1.7 -0.55,3.19 -1.66,4.48 -1.11,1.29 -2.59,2.19 -4.43,2.68 -1.81,0.48 -3.26,0.36 -4.37,-0.36 -1.11,-0.72 -1.66,-1.91 -1.66,-3.58zm7.65 -2.06c0,-1.79 -0.53,-2.55 -1.59,-2.26 -1.03,0.27 -1.55,1.31 -1.55,3.1 0,1.81 0.52,2.57 1.55,2.3 1.06,-0.28 1.59,-1.33 1.59,-3.13zm5.95 3.63l0 -10.4 4.11 -1.09 0 1.65c0.3,-0.65 0.77,-1.25 1.39,-1.8 0.63,-0.55 1.32,-0.93 2.08,-1.13 1.12,-0.3 1.97,-0.19 2.57,0.31 0.6,0.5 0.9,1.35 0.9,2.55l0 6.96 -4.3 1.14 0 -6.24c0,-0.91 -0.39,-1.26 -1.18,-1.05 -0.44,0.12 -0.77,0.38 -0.98,0.78 -0.21,0.4 -0.32,0.88 -0.32,1.43l0 5.75 -4.28 1.14zm12.24 -6.17l3.88 -1.55c0.08,0.83 0.63,1.11 1.63,0.85 0.83,-0.22 1.24,-0.59 1.24,-1.12 0,-0.43 -0.38,-0.62 -1.14,-0.57l-1.26 0.11c-1.41,0.1 -2.41,-0.01 -3,-0.32 -0.59,-0.31 -0.89,-0.96 -0.89,-1.95 0,-1.01 0.44,-1.94 1.31,-2.81 0.88,-0.87 2.11,-1.51 3.71,-1.94 1.52,-0.4 2.69,-0.46 3.52,-0.16 0.83,0.3 1.35,0.82 1.54,1.59l-3.78 1.75c-0.1,-0.32 -0.28,-0.55 -0.55,-0.68 -0.27,-0.14 -0.59,-0.15 -0.96,-0.05 -0.69,0.18 -1.03,0.52 -1.03,1.02 0,0.4 0.43,0.55 1.3,0.44l1.51 -0.13c2.58,-0.23 3.87,0.55 3.87,2.34 0,1.09 -0.47,2.08 -1.42,2.97 -0.94,0.89 -2.3,1.57 -4.06,2.04 -1.68,0.45 -2.97,0.48 -3.86,0.09 -0.89,-0.38 -1.42,-1.02 -1.58,-1.91zm12.28 -0.35l0 -4.01 4.51 -1.2 0 4.01 -4.51 1.2zm6.39 -1.7l0 -4.01 4.51 -1.2 0 4.01 -4.51 1.2zm6.39 -1.7l0 -4.01 4.51 -1.2 0 4.01 -4.51 1.2z"/>
    <path class="fil3" d="M114.17 156.57l0.14 120.8c3.98,-0.09 25.27,-6.36 31.04,-7.89l23.39 -6.17c2.11,-0.56 6.19,-1.36 7.92,-2.5 -14.29,-0.12 -29.92,-1.27 -43.23,-1.33 -5.07,-0.03 -4.65,0.77 -4.58,-4.09 0.44,-29.29 -0.85,-60.13 -0.57,-89.94 3.35,-0.6 29.96,-12.36 35.36,-14.62l61.19 -25.78c3.58,-1.54 5.25,-3.07 8.76,-1.5l35.83 14.82 -23.4 6.69 -0.42 0.17 89.47 5.75 -27.71 -12.16 -55.32 -23.06c-4.59,-1.88 -9.09,-3.8 -13.63,-5.7 -8.14,-3.41 -6.16,-3.8 -14.24,-0.23 -18.37,8.11 -36.82,15.28 -55.1,23.27 -9.19,4.02 -18.22,7.76 -27.56,11.63 -4.31,1.79 -25.09,10 -27.37,11.83z"/>
    <path class="fil3" d="M202.33 200.27c0.53,-0.41 -0.78,0.61 0,0zm-16.33 -28.81c0.13,0.13 0.29,0.25 0.33,0.46 1.9,-0.09 1.1,-2.02 6.91,-3.26 3.03,-0.65 6.31,-0.56 9.49,-0.57 6.06,-0.01 14.54,-1.26 19.44,0.64 1.38,5.7 -5.13,12.67 -7.58,16.34 -5.53,8.27 -18.68,18.32 -29.57,19.85 -7.73,1.08 -16.85,1.74 -22.76,-1.34 -1.06,-5.51 4.54,-9.68 8.75,-14.31 2.61,-2.88 8.71,-8.73 10.19,-13.28 -5.33,3.56 -9.48,7.36 -13.34,12.8l-5.71 7.19c-1.89,2.22 -4.46,5.22 -3.93,9.51 3.66,2.91 18.01,4.13 24,3.44 7.85,-0.91 15.27,-4.72 19.96,-8.38 -7.25,6.29 -17.42,14.65 -32.3,11.95 -6.38,-1.16 -13.8,-3.47 -18.33,0.8 -3.01,2.84 -6.56,10.71 -6.45,16.82 2.44,2.6 8.53,5.11 12.82,6.17 5.77,1.42 12.06,1.56 17.81,0.15 14.85,-3.64 20.44,-16.47 29.4,-27.57 4.64,-5.76 7.36,-10.04 12.61,-15.83 13.35,-14.71 19.19,-23.24 42.95,-23.96 24.07,-0.72 95.35,2.06 112.54,-1 -8.96,-2.7 -88,-9.47 -97.9,-10.2 -15.57,-1.16 -35.64,-3.74 -51.14,-2.82 -8.09,0.48 -15.49,2.32 -21.75,5.49 -3.09,1.57 -5.66,3.12 -8.62,4.8 -2.2,1.25 -4.54,2.35 -6.07,4.18 -0.07,0.09 -0.16,0.22 -0.23,0.3l-1.51 1.62z"/>
    <path class="fil3" d="M177.92 237.99c21.75,0.51 29.18,-11.8 39.15,-25.22 5.85,-7.88 15.04,-20.45 23.38,-24.87 3.96,-2.1 8.21,-3.1 12.89,-3.67 10.15,-1.23 20.31,-0.94 30.44,-1.85 27.06,-2.42 56.02,-3.7 83.21,-6.1 1.36,-0.12 2.45,-0.12 3.79,-0.17 2.88,-0.11 2.74,-0.09 4,-0.8 -9.9,-0.77 -21.84,-0.54 -31.94,-0.64 -10.92,-0.11 -21.83,-0.17 -32.75,-0.11 -23.48,0.11 -53.73,-2.91 -73.35,7.93l-7.25 4.58c-1.33,1.12 -1.33,0.94 -2.51,1.79l-8.32 7.82c-8,9.56 -23.09,30.75 -29.48,36 -3.83,3.14 -6.8,3.43 -11.25,5.31z"/>
    <path class="fil3" d="M144.8 233.22c0.98,8.31 2.55,8.71 8.07,11.37 8.25,3.98 13.69,2.9 16.27,3.9 -7.45,-0.19 -14.75,-1.81 -18.62,-2.62 17.18,6.95 31.11,4.08 34.95,3.59 10.04,-1.29 21.21,-3.42 30.83,-5.67 43.77,-10.27 72.3,-19.18 114.41,-32.71 11.14,-3.58 46.46,-15.11 53.39,-20.06 -8.1,1.41 -19.7,5.76 -28.56,8.27 -48.13,13.65 -136.18,44.65 -182.36,43.36 -8.3,-0.23 -19.35,-1.56 -26.08,-6.87 -1.35,-1.07 -1.04,-1.42 -2.32,-2.55z"/>
    <path class="fil3" d="M235.59 226.72c9.85,-0.58 117.37,-30.46 134.11,-36.27 0.13,-0.05 0.27,-0.1 0.4,-0.14 0.13,-0.05 0.27,-0.09 0.41,-0.14 0.17,-0.06 0.65,-0.22 0.82,-0.28l2.33 -1.06c-10.5,1.75 -24.52,5.44 -36.26,7.92l-80.88 17.91c-5.16,1.14 -12.5,7.83 -20.92,12.05z"/>
    <path class="fil3" d="M249.74 195.76l1.39 15.8c2.68,0.04 35,-7.31 38.31,-8.53l0.1 -11.56c-3.46,-0.26 -37.82,3.33 -39.8,4.3z"/>
    <path class="fil3" d="M205.5 235.02c13.55,-3.88 19.7,-7.37 30.35,-14.14 4.3,-2.73 7.84,-5.62 11.86,-8.75 0.83,-0.61 -1.06,-14.46 -1.26,-16.47 -8.16,-0.67 -19.53,18.73 -25.06,24.68l-15.61 14.28c-0.07,0.1 -0.19,0.27 -0.29,0.4z"/>
    <polygon class="fil3" points="295.39,190.69 295.13,201.7 324.25,195.21 324.28,187.64 "/>
    <polygon class="fil3" points="329.8,187.13 329.78,193.88 350.48,189.26 350.54,184.92 "/>
    <path class="fil3" d="M353.42 185.56l-0.01 2.92 24.85 -5.59c1.57,-0.37 2.04,-0.62 3.63,-0.88l-25.12 2.28c-2.17,0.22 -2.39,-0.07 -3.35,1.27z"/>
    <path class="fil0" d="M114.17 314.71l0 -30.43 12.43 -3.9 9.87 13.69 0 -7.91 0 -8.87 9.22 -2.89 0 30.43 -10.09 3.16 -12.22 -17.08 0 9 0 11.91 -9.22 2.89zm120.21 -37.7l0 -30.43 16.52 -5.18c3.54,-1.11 6.32,-1.21 8.35,-0.31 2.03,0.9 3.04,2.67 3.04,5.31 0,2.26 -0.75,4.33 -2.24,6.2 -1.49,1.87 -3.41,3.37 -5.76,4.48 2.23,-0.5 3.88,-0.41 4.96,0.25 1.07,0.66 1.9,2.09 2.48,4.29l1.61 6.32 -10.22 3.2 -1.39 -6.82c-0.26,-1.31 -0.66,-2.13 -1.19,-2.47 -0.54,-0.34 -1.44,-0.31 -2.72,0.09l-3.96 1.24 0 10.87 -9.48 2.97zm9.48 -20.23l5.04 -1.58c1.07,-0.34 1.93,-0.87 2.56,-1.61 0.64,-0.74 0.96,-1.57 0.96,-2.5 0,-0.93 -0.32,-1.55 -0.96,-1.87 -0.64,-0.32 -1.49,-0.31 -2.56,0.02l-5.04 1.58 0 5.96zm-77.46 41.56l-1.45 -4.29 -9.04 2.84 -1.45 5.2 -8.19 2.57 8.9 -28.74 11.08 -3.48 8.97 23.13 -8.82 2.77zm-8.64 -8.04l5.45 -1.71 -0.89 -2.76c-0.54,-1.71 -1.14,-3.63 -1.78,-5.78l-0.52 2.02 -1.33 4.98 -0.93 3.26zm17.9 5.14l0 -25.95 8.34 -2.62 0 25.95 -8.34 2.62zm9.23 -12.94l7.71 -4.2c-0.05,2.19 0.13,3.73 0.54,4.61 0.41,0.89 1.15,1.16 2.24,0.82 1.53,-0.48 2.3,-1.83 2.3,-4.06l0 -17.09 8.16 -2.56 0 15.42c0,3.73 -0.8,6.77 -2.39,9.13 -1.59,2.35 -4.16,4.08 -7.69,5.19 -3.58,1.13 -6.28,1.05 -8.1,-0.24 -1.82,-1.28 -2.74,-3.63 -2.76,-7.03zm39.84 -2.45l-1.45 -4.29 -9.04 2.84 -1.45 5.2 -8.19 2.57 8.9 -28.74 11.08 -3.48 8.97 23.13 -8.82 2.77zm-8.64 -8.04l5.45 -1.71 -0.89 -2.76c-0.54,-1.71 -1.14,-3.63 -1.78,-5.78l-0.52 2.02 -1.33 4.98 -0.93 3.26zm66.3 -10.05l-1.45 -4.29 -9.04 2.84 -1.45 5.2 -8.19 2.57 8.9 -28.74 11.08 -3.48 8.97 23.13 -8.82 2.77zm-8.64 -8.04l5.45 -1.71 -0.89 -2.76c-0.54,-1.71 -1.14,-3.63 -1.78,-5.78l-0.52 2.02 -1.33 4.98 -0.93 3.26zm17.9 5.14l0 -25.95 8.34 -2.62 0 25.95 -8.34 2.62zm11.19 -3.51l0 -25.95 8.34 -2.62 0 19.46 12.57 -3.94 0 6.49 -20.91 6.56zm20.09 -13.6l8.27 -4.41c0.22,1.14 0.73,1.93 1.52,2.38 0.79,0.44 1.83,0.46 3.11,0.06 1.21,-0.38 2.13,-0.88 2.74,-1.49 0.62,-0.61 0.93,-1.28 0.93,-2 0,-1.29 -0.95,-1.75 -2.85,-1.4l-3.22 0.64c-3.24,0.6 -5.59,0.5 -7.04,-0.29 -1.46,-0.79 -2.19,-2.41 -2.19,-4.86 0,-2.45 1.06,-4.77 3.17,-6.98 2.11,-2.21 4.94,-3.87 8.47,-4.97 3.36,-1.05 6.09,-1.26 8.19,-0.62 2.1,0.64 3.4,2.01 3.89,4.1l-8.27 4.26c-0.62,-1.91 -1.99,-2.53 -4.11,-1.86 -0.99,0.31 -1.76,0.75 -2.32,1.32 -0.56,0.57 -0.83,1.19 -0.83,1.86 0,1.24 0.93,1.66 2.78,1.28l3.3 -0.66c3.11,-0.61 5.51,-0.47 7.19,0.41 1.68,0.88 2.52,2.46 2.52,4.73 0,2.59 -1.09,5.01 -3.28,7.24 -2.19,2.23 -5.24,3.96 -9.17,5.19 -3.68,1.15 -6.63,1.36 -8.84,0.62 -2.21,-0.74 -3.53,-2.25 -3.95,-4.54z"/>
   </g>
  </g>
 </g>
</svg>
